<?xml version="1.0" encoding="UTF-8"?>
<!DOCTYPE svg PUBLIC "-//W3C//DTD SVG 1.1//EN" "http://www.w3.org/Graphics/SVG/1.1/DTD/svg11.dtd">
<!-- Creator: CorelDRAW X5 -->
<svg xmlns="http://www.w3.org/2000/svg" xml:space="preserve" width="162.695mm" height="130mm" style="shape-rendering:geometricPrecision; text-rendering:geometricPrecision; image-rendering:optimizeQuality; fill-rule:evenodd; clip-rule:evenodd"
viewBox="0 0 16269 13000"
 xmlns:xlink="http://www.w3.org/1999/xlink">
 <defs>
  <style type="text/css">
   <![CDATA[
    .fil1 {fill:#002BBA;fill-rule:nonzero}
    .fil0 {fill:#00C89E;fill-rule:nonzero}
   ]]>
  </style>
 </defs>
 <g id="__x0023_Layer_x0020_1">
  <metadata id="CorelCorpID_0Corel-Layer"/>
  <path class="fil0" d="M9285 2025c103,-66 228,-122 352,-86 110,42 147,170 145,277 1,1339 0,2678 0,4017 1267,0 2533,-1 3800,0 101,0 223,34 262,137 42,123 -22,248 -77,355 -332,610 -678,1213 -1030,1812 -104,139 -242,269 -416,311 -144,35 -294,33 -441,36 -420,1 -840,1 -1261,1 -183,-1 -389,8 -533,135 -120,115 -105,300 -58,445 102,310 297,577 441,867 -149,-100 -292,-206 -430,-321 -427,-378 -818,-797 -1148,-1262 -990,-1373 -1503,-3052 -1596,-4733 -16,-369 135,-772 464,-965 509,-341 1017,-683 1525,-1025z"/>
  <path class="fil1" d="M2428 4710c52,-110 185,-144 297,-142 769,0 1538,0 2307,0 133,3 274,8 394,73 122,66 214,173 308,272 281,319 561,639 841,958 16,17 45,54 67,22 154,-167 301,-342 454,-511 128,817 444,1597 871,2302 544,891 1259,1673 2073,2325 137,115 281,221 430,321 93,101 181,207 270,311 67,78 113,190 71,290 -46,100 -163,140 -266,139 -777,1 -1553,0 -2330,0 -130,0 -267,-4 -386,-63 -125,-65 -221,-170 -315,-272 -276,-314 -552,-629 -828,-944 -21,-25 -46,-46 -73,-63 -293,328 -580,661 -871,990 -96,106 -194,216 -321,286 -118,62 -255,67 -386,67 -778,0 -1555,0 -2332,0 -112,3 -245,-44 -280,-161 -34,-119 38,-229 114,-313 806,-927 1614,-1854 2425,-2777 -812,-935 -1632,-1863 -2442,-2799 -76,-82 -134,-201 -90,-312z"/>
 </g>
</svg>
